<?xml version="1.0" encoding="utf-8"?>
<!-- Generator: Adobe Illustrator 19.0.0, SVG Export Plug-In . SVG Version: 6.00 Build 0)  -->
<svg version="1.1" id="Layer_1" xmlns="http://www.w3.org/2000/svg" xmlns:xlink="http://www.w3.org/1999/xlink" x="0px" y="0px"
	 viewBox="-135 297.3 324.7 247.6" style="enable-background:new -135 297.3 324.7 247.6;" xml:space="preserve">
<style type="text/css">
	.st0{fill:#FFFFFF;fill-opacity:0;}
	.st1{opacity:4.760000e-02;fill:#EFEDEE;enable-background:new    ;}
	.st2{opacity:9.520000e-02;fill:#DEDCDE;enable-background:new    ;}
	.st3{opacity:0.1429;fill:#CCCACD;enable-background:new    ;}
	.st4{opacity:0.1905;fill:#BEBBBE;enable-background:new    ;}
	.st5{opacity:0.2381;fill:#AEACB0;enable-background:new    ;}
	.st6{opacity:0.2857;fill:#9F9CA1;enable-background:new    ;}
	.st7{opacity:0.3333;fill:#918F94;enable-background:new    ;}
	.st8{opacity:0.381;fill:#848186;enable-background:new    ;}
	.st9{opacity:0.4286;fill:#77747A;enable-background:new    ;}
	.st10{opacity:0.4762;fill:#6B686E;enable-background:new    ;}
	.st11{opacity:0.5238;fill:#5F5C62;enable-background:new    ;}
	.st12{opacity:0.5714;fill:#545257;enable-background:new    ;}
	.st13{opacity:0.619;fill:#49474D;enable-background:new    ;}
	.st14{opacity:0.6667;fill:#3E3D42;enable-background:new    ;}
	.st15{opacity:0.7143;fill:#343438;enable-background:new    ;}
	.st16{opacity:0.7619;fill:#2A2B2F;enable-background:new    ;}
	.st17{opacity:0.8095;fill:#212226;enable-background:new    ;}
	.st18{opacity:0.8571;fill:#19191E;enable-background:new    ;}
	.st19{opacity:0.9048;fill:#131417;enable-background:new    ;}
	.st20{opacity:0.9524;fill:#0A0B0D;enable-background:new    ;}
	.st21{fill:#040404;}
	.st22{fill:#6CB645;}
	.st23{fill:url(#SVGID_1_);}
	.st24{fill:none;}
	.st25{font-family:'BradleyHandITCTT-Bold';}
	.st26{font-size:18px;}
</style>
<g>
	<g>
		<path class="st0" d="M-44.9,437l88.1,5l88.1,5.1l8.3-73.7c24.8,1,43.7-2.1,40.9,27.5l-5.8,60.7c-2.8,29.6-16.3,47.5-41.1,46.5
			c0,0,5.7,21.3,11.5,36.9c-31.5-8.4-55.3-19.7-74.4-41.2L-77.9,499c-24.8-1-45.8-33.6-41.8-51.5l14.1-69
			C-100.6,361.7-36.4,348.5-44.9,437z"/>
	</g>
	<path class="st1" d="M179.5,399.9l-5.8,60.5c-2.2,23.8-12,40.1-28.7,44.7l0,0c-3.6,1.2-7.6,1.9-12,1.9c0.2,0.6,5.9,21.7,11.5,36.9
		c-31.3-8.7-54.4-19.9-73.4-41.6l-73.7-2.5l-73.7-2.5c-24.5-1-45.1-32.8-41.3-50.9l11.8-59.1c0.1,0,2.1-8.8,2.1-8.8
		c4.5-12.9,49.3-21.7,58,28.4c1.3,8.4,2.8,18.6,1.7,30.6l83.4,4.7l3.8,0.2l87.3,4.9l3.4-22.7l5.3-46.8l0.3-2.5
		c18.1,0.8,33.1-2.5,37.9,9.3C179,388.4,180.1,393.3,179.5,399.9z"/>
	<path class="st2" d="M178.5,399l-5.8,60.2c-2.3,23.6-12.3,39.9-29.2,44.2l0,0c-3.4,1.2-7.1,2.1-11.2,2.4c0.4,1.2,6.1,22,11.6,36.8
		c-30.9-9-53.7-20.2-72.3-42.1l-73.1-2.4l-73.1-2.4c-24.2-1-44.5-32.1-40.8-50.2l11.5-58.5c0.3,0,2.1-8.3,2.3-8.1
		c4.7-11.5,46.7-17.3,55.7,30.2c1.2,7.9,4,17.7,2.8,29.2l82.5,4.6l3.8,0.2l86.5,4.8l4.3-21.6l5.3-46.3l0.3-2.5
		c17.1,0.7,31.7-4.1,36.2,7.1C177.4,388,179.1,392.7,178.5,399z"/>
	<path class="st3" d="M177.6,398l-5.8,60c-2.3,23.4-12.6,39.7-29.6,43.6l0,0c-3.2,1.3-6.6,2.4-10.4,2.9c0.6,1.8,6.3,22.4,11.7,36.8
		c-30.7-9.2-52.9-20.4-71.2-42.5l-72.5-2.4l-72.5-2.4c-23.9-1-43.9-31.3-40.2-49.6l11.2-58.1c0.4,0,2.3-7.8,2.5-7.5
		c4.8-10.1,44-13,53.4,32.1c1.2,7.6,5.1,16.8,4.1,27.7l81.8,4.5l3.7,0.2l85.7,4.7l5.1-20.4l5.3-45.8l0.2-2.4
		c16.3,0.7,30.4-5.9,34.6,4.8C175.9,387.6,178.2,392.1,177.6,398z"/>
	<path class="st4" d="M176.7,397.1l-5.7,59.7c-2.2,23.2-12.9,39.5-30.1,43.1l0,0c-3,1.5-6.2,2.7-9.6,3.5c0.8,2.4,6.6,22.8,11.8,36.8
		c-30.3-9.5-52.1-20.6-70.2-42.9L1,494.9l-71.9-2.5c-23.6-1-43.2-30.6-39.7-49l10.7-57.5c0.5,0,2.4-7.3,2.7-6.8
		c5.1-8.7,41.3-8.6,51,34c1.1,7.1,6.3,15.9,5.2,26.2l80.9,4.4l3.6,0.2l84.9,4.6l5.9-19.2l5.3-45.4l0.3-2.4c15.4,0.6,28.9-7.5,33,2.6
		C174.4,387.2,177.2,391.4,176.7,397.1z"/>
	<path class="st5" d="M175.7,396.1l-5.7,59.5c-2.2,23.1-13.3,39.3-30.5,42.7l0,0c-2.7,1.5-5.6,2.9-8.8,4c1,3,6.9,23.2,11.8,36.8
		c-30-9.8-51.3-20.8-69.2-43.3l-71.3-2.4l-71.2-2.4c-23.3-1-42.6-29.8-39.1-48.3l10.4-57c0.6,0,2.5-6.8,2.9-6.2
		c5.2-7.3,38.6-4.3,48.7,35.8c1.1,6.7,7.4,15,6.5,24.7l80.2,4.3l3.5,0.2l84.1,4.5l6.7-18l5.3-44.9l0.3-2.3
		c14.4,0.6,27.5-9.2,31.4,0.3C172.8,386.8,176.3,390.8,175.7,396.1z"/>
	<path class="st6" d="M174.8,395.1l-5.7,59.2c-2.2,22.9-13.7,39.1-30.9,42.2l0,0c-2.5,1.6-5.2,3.2-8,4.5c1.3,3.6,7.1,23.6,11.9,36.7
		c-29.7-10.1-50.5-21.1-68.1-43.7l-70.7-2.5l-70.7-2.5c-23-1-41.9-29.1-38.6-47.7l10-56.5c0.8,0.1,2.6-6.2,3-5.5
		c5.4-5.9,35.9,0,46.4,37.8c1,6.3,8.5,14.1,7.7,23.2l79.3,4.2l3.5,0.2l83.4,4.4l7.4-16.9l5.4-44.5l0.3-2.3
		c13.5,0.5,26.2-10.8,29.7-2C171.3,386.4,175.3,390.2,174.8,395.1z"/>
	<path class="st7" d="M173.9,394.2l-5.7,59c-2.1,22.7-14,38.8-31.3,41.7l0,0c-2.4,1.7-4.7,3.5-7.2,5c1.5,4.2,7.3,24,12,36.7
		c-29.4-10.4-49.7-21.3-67.1-44.2L4.5,490l-70.1-2.5c-22.8-0.9-41.3-28.3-38.1-47l9.6-55.9c0.8,0.1,2.8-5.7,3.2-4.9
		c5.5-4.6,33.2,4.4,44.1,39.6c0.9,5.9,9.7,13.3,8.9,21.8l78.5,4.1l3.4,0.2l82.4,4.3l8.3-15.7l5.3-44l0.3-2.2
		c12.7,0.5,24.8-12.5,28.1-4.2C169.7,386,174.3,389.6,173.9,394.2z"/>
	<path class="st8" d="M172.9,393.3l-5.6,58.7c-2.2,22.5-14.3,38.6-31.8,41.2l0,0c-2.1,1.7-4.2,3.7-6.4,5.6
		c1.7,4.8,7.6,24.4,12.1,36.7c-29.1-10.6-49-21.5-66-44.6l-69.5-2.5l-69.5-2.5c-22.5-1-40.7-27.5-37.5-46.4l9.3-55.4
		c1,0,2.9-5.2,3.4-4.3c5.7-3.2,30.5,8.7,41.8,41.5c0.8,5.4,10.8,12.4,10.1,20.2l77.7,4l3.4,0.2l81.6,4.2l9.1-14.5l5.4-43.5l0.3-2.2
		c11.7,0.5,23.4-14.2,26.5-6.5C168.1,385.6,173.3,388.9,172.9,393.3z"/>
	<path class="st9" d="M172,392.3l-5.6,58.5c-2.1,22.3-14.7,38.4-32.3,40.8l0,0c-1.9,1.8-3.7,4-5.6,6.1c1.9,5.4,7.9,24.7,12.1,36.7
		c-28.8-10.9-48.1-21.8-64.9-45l-68.9-2.5l-68.9-2.5c-22.2-0.9-40.1-26.8-37-45.7l9-54.8c1.1,0,3-4.7,3.6-3.6
		c5.9-1.8,27.8,13.1,39.5,43.4c0.8,5,12,11.5,11.3,18.8l76.9,3.8l3.3,0.2l80.8,4l9.9-13.4l5.3-43l0.3-2.2c10.8,0.4,22-15.9,24.8-8.8
		C166.6,385.2,172.4,388.4,172,392.3z"/>
	<path class="st10" d="M171,391.4l-5.6,58.2c-2.1,22.1-15,38.2-32.7,40.3l0,0c-1.7,1.9-3.2,4.3-4.8,6.6c2.1,6,8.1,25.1,12.3,36.6
		c-28.5-11.2-47.4-22-63.9-45.4l-68.3-2.5l-68.3-2.5c-21.9-0.9-39.4-26-36.4-45l8.6-54.3c1.3,0.1,3.2-4.1,3.8-3
		c6.1-0.5,25.2,17.4,37.2,45.2c0.8,4.6,13.1,10.6,12.5,17.3l76.1,3.8l3.3,0.2l79.9,3.8l10.7-12.2l5.3-42.6l0.3-2.1
		c10,0.4,20.6-17.5,23.2-11C165,384.8,171.4,387.8,171,391.4z"/>
	<path class="st11" d="M170.1,390.4l-5.6,58c-2.1,21.9-15.3,37.9-33.1,39.8l0,0c-1.5,2-2.7,4.5-4,7.1c2.3,6.5,8.3,25.5,12.4,36.7
		c-28.2-11.5-46.6-22.2-62.9-45.9l-67.7-2.5l-67.7-2.5c-21.6-0.9-38.8-25.3-35.9-44.4l8.2-53.8c1.3,0.1,3.3-3.6,4-2.4
		c6.2,0.9,22.5,21.7,34.9,47.1c0.7,4.2,14.3,9.7,13.7,15.8l75.3,3.7l3.2,0.2l79.2,3.8l11.4-11l5.3-42.2l0.3-2
		c9,0.4,19.2-19.2,21.5-13.3C163.4,384.4,170.4,387.1,170.1,390.4z"/>
	<path class="st12" d="M169.2,389.5l-5.5,57.7c-2.1,21.8-15.7,37.7-33.5,39.3l0,0c-1.3,2.1-2.2,4.8-3.2,7.7
		c2.5,7.1,8.6,25.8,12.5,36.6c-27.9-11.8-45.8-22.5-61.8-46.3l-67.2-2.5l-67.1-2.5c-21.3-0.9-38.2-24.5-35.4-43.7l7.9-53.3
		c1.5,0,3.4-3.1,4.1-1.7c6.4,2.3,19.8,26.1,32.6,49c0.6,3.8,15.4,8.9,14.9,14.4l74.5,3.5l3.1,0.1l78.5,3.7l12.3-9.8l5.4-41.7l0.3-2
		c8.1,0.3,17.8-20.9,19.9-15.6C161.9,384,169.4,386.5,169.2,389.5z"/>
	<path class="st13" d="M168.3,388.6l-5.5,57.5c-2,21.6-16,37.5-34,38.9l0,0c-1,2.1-1.7,5.1-2.4,8.1c2.8,7.7,8.8,26.2,12.5,36.6
		c-27.6-12-45-22.7-60.7-46.7l-66.5-2.5l-66.5-2.5c-21.1-0.9-37.5-23.8-34.8-43.1l7.6-52.8c1.6,0,3.5-2.6,4.3-1.1
		c6.6,3.7,17.1,30.5,30.2,50.8c0.5,3.4,16.5,8,16.1,12.8l73.7,3.5l3.1,0.1l77.4,3.6l13.1-8.6l5.4-41.2l0.2-2
		c7.3,0.3,16.4-22.6,18.3-17.8C160.3,383.6,168.5,385.9,168.3,388.6z"/>
	<path class="st14" d="M167.3,387.6l-5.5,57.2c-2.1,21.4-16.4,37.3-34.5,38.4l0,0c-0.8,2.2-1.2,5.3-1.6,8.7c3,8.4,9,26.6,12.6,36.5
		c-27.3-12.3-44.2-22.9-59.7-47.2l-65.9-2.5l-65.9-2.5c-20.8-0.8-36.9-23-34.3-42.4l7.2-52.2c1.8,0.1,3.6-2.1,4.5-0.4
		c6.8,5.1,14.5,34.8,27.9,52.8c0.5,2.9,17.8,7.2,17.3,11.4l72.9,3.3l3,0.1l76.7,3.5l13.9-7.4l5.4-40.7l0.2-1.9
		c6.3,0.2,15-24.2,16.7-20.1C158.8,383.2,167.5,385.3,167.3,387.6z"/>
	<path class="st15" d="M166.3,386.7l-5.4,57c-2.1,21.2-16.7,37.1-34.9,37.9l0,0c-0.6,2.3-0.8,5.6-0.8,9.2c3.1,9,9.4,26.9,12.7,36.6
		c-27-12.6-43.5-23.2-58.7-47.6l-65.3-2.6l-65.3-2.6c-20.5-0.9-36.2-22.2-33.8-41.7l6.8-51.7c1.9,0.1,3.8-1.5,4.7,0.2
		c6.9,6.5,11.8,39.1,25.6,54.6c0.4,2.5,18.9,6.3,18.5,9.9l72.2,3.2l2.9,0.1l75.9,3.4l14.7-6.3l5.4-40.3l0.2-1.8
		c5.4,0.2,13.6-25.9,15.1-22.4C157.2,382.8,166.6,384.7,166.3,386.7z"/>
	<path class="st16" d="M165.4,385.7l-5.5,56.7c-2,21-17,36.9-35.3,37.4l0,0c-0.4,2.4-0.2,5.9,0,9.7c3.3,9.6,9.6,27.3,12.8,36.5
		c-26.6-12.9-42.6-23.4-57.6-48l-64.7-2.5l-64.7-2.5c-20.2-0.8-35.6-21.5-33.2-41.1l6.4-51.2c2,0.1,3.9-1,4.9,0.9
		c7.1,7.9,9.1,43.5,23.3,56.5c0.3,2.1,20,5.4,19.7,8.4l71.3,3.1l2.8,0.1l75.1,3.3l15.5-5.1l5.4-39.9l0.2-1.8
		c4.5,0.1,12.2-27.5,13.4-24.6C155.6,382.4,165.6,384.1,165.4,385.7z"/>
	<path class="st17" d="M164.5,384.7l-5.4,56.4c-2,20.9-17.4,36.7-35.7,36.9l0,0c-0.1,2.5,0.2,6.1,0.8,10.2
		c3.6,10.2,9.8,27.7,12.8,36.5c-26.4-13.2-41.9-23.6-56.6-48.5l-64.1-2.6l-64.1-2.6c-19.9-0.8-35-20.7-32.7-40.4l6.1-50.7
		c2.1,0.1,4-0.5,5.1,1.5c7.2,9.3,6.3,47.9,21,58.4c0.2,1.7,21.2,4.5,20.9,6.9l70.5,3l2.8,0.1l74.3,3.2l16.3-4l5.4-39.4l0.2-1.8
		c3.6,0.2,10.8-29.3,11.8-26.9C154.1,382.1,164.6,383.5,164.5,384.7z"/>
	<path class="st18" d="M163.6,383.8l-5.4,56.2c-2,20.7-17.7,36.4-36.1,36.4l0,0c0.1,2.6,0.8,6.4,1.6,10.7c3.8,10.7,10,28,12.9,36.4
		c-26.1-13.4-41.1-23.9-55.5-48.9l-63.5-2.6l-63.5-2.5c-19.6-0.8-34.3-20-32.1-39.8l5.8-50.1c2.3,0.1,4.2,0,5.2,2.1
		c7.5,10.7,3.7,52.2,18.7,60.2c0.2,1.3,22.3,3.7,22.1,5.4l69.6,2.9l2.7,0.1l73.5,3.1l17.1-2.8l5.5-38.9l0.2-1.8
		c2.7,0.1,9.4-30.9,10.1-29.2C152.5,381.7,163.7,382.8,163.6,383.8z"/>
	<path class="st19" d="M162.7,382.9l-5.3,55.9c-1.9,20.5-18.1,36.2-36.6,35.9l0,0c0.3,2.6,1.2,6.6,2.4,11.3
		c4,11.3,10.3,28.4,13,36.5c-25.8-13.7-40.3-24.1-54.5-49.3l-63-2.5l-62.9-2.5c-19.3-0.8-33.7-19.2-31.6-39.2l5.3-49.6
		c2.4,0.1,4.3,0.5,5.4,2.7c7.6,12,1,56.5,16.4,62.1c0.2,0.8,23.5,2.8,23.4,4l68.9,2.8l2.6,0.1l72.6,2.9l17.9-1.6l5.5-38.4l0.3-1.7
		c1.8,0.1,8-32.6,8.5-31.4C151,381.3,162.7,382.2,162.7,382.9z"/>
	<path class="st20" d="M161.7,381.9l-5.4,55.7c-2,20.3-18.4,36-37.1,35.5l0,0c0.5,2.7,1.7,6.9,3.2,11.8
		c4.2,11.9,10.5,28.8,13.1,36.4C110,507.2,96,497,82.1,471.6L19.8,469l-62.3-2.6c-19.1-0.8-33.1-18.5-31.1-38.5l5-49.1
		c2.5,0.1,4.4,1.1,5.6,3.4c7.8,13.4-1.7,60.9,14.1,64c0.1,0.4,24.6,1.9,24.5,2.4l68,2.7l2.6,0.1l71.9,2.9l18.7-0.4l5.5-38l0.3-1.7
		c0.9,0,6.6-34.2,6.8-33.6C149.4,380.8,161.7,381.6,161.7,381.9z"/>
	<path class="st21" d="M-49,448.3l93,3.6l93,3.6l5.5-37.5l5.5-37.5l12.9,0.6l-5.3,55.4c-1.9,20.1-18.7,35.8-37.5,35l0,0
		c2.6,9.7,13.9,38.5,17.1,48.7c-25.1-14.3-38.7-24.6-52.4-50.2l-61.8-2.5l-61.8-2.5c-18.8-0.8-32.5-17.7-30.5-37.8l4.9-48.5
		C-48,379.2-67.8,447.6-49,448.3z"/>
</g>
<path class="st22" d="M139,531.3l-6.7-19.2c-3.1-8.7-4.7-18.2-5-27.9c25.1-2.6,45.8-27.9,46.8-58.3l2.2-64.2
	c1.1-31.7-24.1-61.4-50.7-60L-59.1,309c-26.7,0.5-49.2,26.8-50.3,58.5l-2.2,64.2c-1.1,31.7,19.8,57.1,46.4,56.6l143-2.9
	c11.5,19.2,27.2,33.2,44.5,39.6L139,531.3L139,531.3z"/>
<linearGradient id="SVGID_1_" gradientUnits="userSpaceOnUse" x1="241.4339" y1="512.1285" x2="241.4339" y2="245.6042" gradientTransform="matrix(-0.707 -6.500000e-03 -6.500000e-03 0.707 209.6144 146.3677)">
	<stop  offset="0" style="stop-color:#FFFFFF"/>
	<stop  offset="0.2723" style="stop-color:#FAFAFB"/>
	<stop  offset="0.6286" style="stop-color:#ECECED"/>
	<stop  offset="1" style="stop-color:#D7D8D8"/>
</linearGradient>
<path class="st23" d="M122.5,507.7c-2.5-10.5-3.3-21.6-2.6-32.6l0.3-4.6l3.9-0.1l4.5-0.1c20.1-0.4,37.1-20.2,38-44.1l2.2-64.2
	c0.8-23.9-14.9-43.1-35-42.6l-189,3.8c-20.1,0.4-37.1,20.2-38,44.1l-2.2,64.2c-0.8,23.9,14.9,43.1,35,42.6l147.1-2.9l2.1,0l1.2,2.1
	C98.4,488.6,109.8,500.6,122.5,507.7L122.5,507.7z"/>
<rect x="-101.1" y="352.1" transform="matrix(0.9996 -2.740067e-02 2.740067e-02 0.9996 -11.3628 0.9683)" class="st24" width="261.5" height="126"/>
<rect x="-66" y="345.9" class="st24" width="228.6" height="110.3"/>
<text transform="matrix(1 -3.700000e-03 3.700000e-03 1 -65.9523 357.6648)" class="st25 st26">At the lesson we learned  </text>
<text id="how_to_teach" transform="matrix(1 -3.700000e-03 3.700000e-03 1 -65.9554 379.2651)" class="st25 st26">how to teach a computer</text>
<text transform="matrix(1 -3.700000e-03 3.700000e-03 1 -65.9594 400.8654)" class="st25 st26">say ‘hi’.</text>
<text transform="matrix(1 -3.700000e-03 3.700000e-03 1 -65.9625 422.4657)" class="st25 st26">Here is the photo of my notes.  </text>
<text transform="matrix(1 -3.700000e-03 3.700000e-03 1 -65.9666 444.066)" class="st25 st26">Look carefully :)</text>
</svg>
