<?xml version="1.0" encoding="utf-8"?>
<!-- Generator: Adobe Illustrator 19.0.0, SVG Export Plug-In . SVG Version: 6.00 Build 0)  -->
<svg version="1.1" id="Layer_1" xmlns="http://www.w3.org/2000/svg" xmlns:xlink="http://www.w3.org/1999/xlink" x="0px" y="0px"
	 viewBox="0 0 386.3 455.5" style="enable-background:new 0 0 386.3 455.5;" xml:space="preserve">
<style type="text/css">
	.st0{fill:#FFFFFF;}
	.st1{fill:#E94F36;enable-background:new    ;}
	.st2{font-family:'BradleyHandITCTT-Bold';}
	.st3{font-size:29px;}
	.st4{font-size:20px;}
	.st5{fill:#5AB134;enable-background:new    ;}
</style>
<rect id="XMLID_55_" class="st0" width="386.3" height="455.5"/>
<text id="XMLID_1_" transform="matrix(1 0 0 1 122.6964 46.4692)" class="st1 st2 st3">Homework</text>
<text id="XMLID_3_" transform="matrix(1 0 0 1 8.9592 93.2873)"><tspan x="0" y="0" class="st2 st4">Write the following program:</tspan><tspan x="0" y="48" class="st5 st2 st4">1.</tspan><tspan x="15.8" y="48" class="st2 st4"> Create a variable </tspan><tspan x="168" y="48" class="st1 st2 st4">money</tspan><tspan x="228.7" y="48" class="st2 st4"> and</tspan><tspan x="21" y="72" class="st2 st4">assign some value to it.</tspan><tspan x="0" y="96" class="st5 st2 st4">2.</tspan><tspan x="17.7" y="96" class="st2 st4"> If the sum is in the range </tspan><tspan x="249" y="96" class="st5 st2 st4">between</tspan><tspan x="22" y="120" class="st5 st2 st4">0 до 5</tspan><tspan x="77.1" y="120" class="st2 st4">, output </tspan><tspan x="149.3" y="120" class="st1 st2 st4">Sorry, there’s nothing </tspan><tspan x="22" y="144" class="st1 st2 st4">you can buy</tspan><tspan x="133.9" y="144" class="st2 st4">.</tspan><tspan x="0" y="168" class="st5 st2 st4">3.</tspan><tspan x="17.4" y="168" class="st2 st4"> Else if the sum is in the range </tspan><tspan x="23" y="192" class="st5 st2 st4">between 6 and 20</tspan><tspan x="175.7" y="192" class="st2 st4">, output </tspan><tspan x="247.9" y="192" class="st1 st2 st4">Buy an apple</tspan><tspan x="364.2" y="192" class="st2 st4">.</tspan><tspan x="0" y="216" class="st5 st2 st4">4.</tspan><tspan x="17.9" y="216" class="st2 st4"> Else if the sum is in the range</tspan><tspan x="23" y="240" class="st5 st2 st4">between 21 and 100</tspan><tspan x="194.9" y="240" class="st2 st4">, output </tspan><tspan x="267.1" y="240" class="st1 st2 st4">Buy a pie</tspan><tspan x="350.3" y="240" class="st2 st4">.</tspan><tspan x="0" y="264" class="st5 st2 st4">5.</tspan><tspan x="17.5" y="264" class="st2 st4"> Else if the sum is in the range </tspan><tspan x="22" y="288" class="st5 st2 st4">from 101  and over</tspan><tspan x="185.7" y="288" class="st2 st4">, output </tspan><tspan x="257.9" y="288" class="st1 st2 st4">Buy </tspan><tspan x="22" y="312" class="st1 st2 st4">anything else</tspan><tspan x="144.4" y="312" class="st2 st4">.</tspan></text>
</svg>
