<?xml version="1.0" encoding="utf-8"?>
<!-- Generator: Adobe Illustrator 19.0.0, SVG Export Plug-In . SVG Version: 6.00 Build 0)  -->
<svg version="1.1" id="Layer_1" xmlns="http://www.w3.org/2000/svg" xmlns:xlink="http://www.w3.org/1999/xlink" x="0px" y="0px"
	 viewBox="-354 139.5 708.7 563.4" style="enable-background:new -354 139.5 708.7 563.4;" xml:space="preserve">
<style type="text/css">
	.st0{enable-background:new    ;}
	.st1{fill:#FFFFFF;fill-opacity:0;}
	.st2{opacity:4.760000e-02;fill:#EEEDEE;enable-background:new    ;}
	.st3{opacity:9.520000e-02;fill:#DDDBDE;enable-background:new    ;}
	.st4{opacity:0.1429;fill:#CDCACE;enable-background:new    ;}
	.st5{opacity:0.1905;fill:#BDBABE;enable-background:new    ;}
	.st6{opacity:0.2381;fill:#ADABAF;enable-background:new    ;}
	.st7{opacity:0.2857;fill:#9F9DA2;enable-background:new    ;}
	.st8{opacity:0.3333;fill:#918E93;enable-background:new    ;}
	.st9{opacity:0.381;fill:#838288;enable-background:new    ;}
	.st10{opacity:0.4286;fill:#767379;enable-background:new    ;}
	.st11{opacity:0.4762;fill:#6C696F;enable-background:new    ;}
	.st12{opacity:0.5238;fill:#605D63;enable-background:new    ;}
	.st13{opacity:0.5714;fill:#555358;enable-background:new    ;}
	.st14{opacity:0.619;fill:#4A474E;enable-background:new    ;}
	.st15{opacity:0.6667;fill:#3D3C42;enable-background:new    ;}
	.st16{opacity:0.7143;fill:#343439;enable-background:new    ;}
	.st17{opacity:0.7619;fill:#2C2C30;enable-background:new    ;}
	.st18{opacity:0.8095;fill:#212126;enable-background:new    ;}
	.st19{opacity:0.8571;fill:#1A1B20;enable-background:new    ;}
	.st20{opacity:0.9048;fill:#121115;enable-background:new    ;}
	.st21{opacity:0.9524;fill:#08090A;enable-background:new    ;}
	.st22{fill:#030405;}
	.st23{fill:#086F41;}
	.st24{fill:url(#XMLID_3_);}
	.st25{fill:#010202;}
	.st26{font-family:'BradleyHandITCTT-Bold';}
	.st27{font-size:43px;}
</style>
<text transform="matrix(0.9703 -0.203 0.2047 0.9788 -588.9068 558.3815)" class="st25 st26 st27">  </text>
<g id="XMLID_48_">
	<g id="XMLID_70_">
		<path id="XMLID_33_" class="st1" d="M-154.9,518.1l187.3-21.3l187.3-21.3l-7.6-174.8c52.6-6.9,91.5-21.2,95.5,48.6l8.2,143.6
			c4.1,69.8-18.3,116.8-70.9,123.7c0,0,19.2,47.6,36.7,81.7c-69.3-7.8-123.1-25.2-170.7-68.1l-314.6,44.3
			c-52.5,7-107.7-61-105.4-104.3l6.3-165.9C-297.7,363.6-166.9,308.8-154.9,518.1z"/>
	</g>
	<path id="XMLID_32_" class="st2" d="M305.4,347.6l8.2,143.1c3.2,56.3-11.5,98-45.4,114.7l0,0c-7.2,4.2-15.5,7.1-24.6,8.9
		c0.6,1.3,19.8,48.4,36.8,81.5c-68.8-8.6-121.5-26.1-168.6-69.4l-156.1,22l-156.1,22c-51.9,6.7-106.1-59.8-104-103.2l4.9-142
		c0.2,0,1.4-21.4,1.5-21.2c5.2-31.7,96.6-69,131.8,44.3c5.6,19,12.2,42.2,13.9,70.7l177.2-20.2l8.2-0.9l185.5-21.1l-0.4-54.3
		l-4.7-110.9l-0.2-5.9c38.3-5,69-18.2,83,7.5C300.5,321,304.5,332,305.4,347.6z"/>
	<path id="XMLID_31_" class="st3" d="M303.1,345.7l8.2,142.4c3.2,55.8-12.4,97.6-46.5,113.7l0,0c-6.8,4.2-14.4,7.5-22.7,9.8
		c1.2,2.6,20.4,49.2,37,81.5c-68.3-9.3-119.9-27-166.5-70.9l-154.7,21.7l-154.7,21.7c-51.3,6.7-104.6-58.1-102.8-101.9l4.1-140.5
		c0.5-0.1,1.7-20.2,2.1-19.7c6-28.6,92.5-57.8,127.6,49.6c5.4,18.1,14.4,39.6,15.8,66.8l175.5-20.2l8.1-0.9l183.8-21.2l1.7-51.9
		l-4.5-109.8l-0.2-5.8c36.4-4.7,65.5-21.6,78.8,3C297.1,320.6,302.2,331,303.1,345.7z"/>
	<path id="XMLID_30_" class="st4" d="M300.9,344l8.2,141.9c3.2,55.4-13.1,97.2-47.6,112.8l0,0c-6.3,4.3-13.1,8.1-20.9,10.8
		c2,3.9,21,49.9,37.2,81.4c-67.7-10.1-118.4-27.8-164.6-72.2l-153.5,21.4l-153.5,21.4c-50.7,6.6-103-56.6-101.4-100.5l3.7-139.3
		c0.9-0.1,2.2-19,2.7-18.3c6.8-25.3,88.3-46.8,123.3,54.7c5,17.1,16.5,37.2,17.9,62.9l173.8-20.2l7.9-0.9l182-21.2l3.8-49.5
		l-4.3-108.7l-0.2-5.8c34.5-4.6,62-24.9,74.5-1.8C293.6,320.4,300,329.9,300.9,344z"/>
	<path id="XMLID_29_" class="st5" d="M298.5,342.1l8.1,141.4c3.2,55-14,96.8-48.8,111.8l0,0c-5.8,4.4-12,8.5-19,11.6
		c2.6,5.3,21.6,50.7,37.3,81.3c-67.2-10.9-116.8-28.6-162.5-73.6l-152.3,21.2L-191,657c-50.1,6.6-101.4-55.1-100.1-99.2l3.2-138
		c1.1-0.1,2.6-17.9,3.3-16.8c7.6-22.2,84-35.6,119.1,60c4.8,16.2,18.5,34.8,20,59l172.1-20.1l7.7-0.9l180.3-21l5.9-47l-4.2-107.7
		l-0.2-5.7c32.5-4.3,58.5-28.3,70.4-6.3C290.2,320,297.8,328.9,298.5,342.1z"/>
	<path id="XMLID_28_" class="st6" d="M296.2,340.2l8.1,140.7c3.2,54.6-14.7,96.5-49.7,110.9l0,0c-5.3,4.6-10.9,8.9-17.2,12.5
		c3.2,6.6,22.4,51.5,37.5,81.3c-66.6-11.6-115.3-29.4-160.5-75.1l-151.1,21l-151.1,21c-49.5,6.5-99.8-53.5-98.7-97.8l2.6-136.6
		c1.4-0.1,3.1-16.7,3.9-15.5c8.5-19.1,79.8-24.5,114.8,65.2c4.5,15.2,20.6,32.2,22,55.1l170.3-20.1l7.6-0.9l178.6-21l8-44.5
		l-4.1-106.6l-0.2-5.5c30.7-4,55-31.7,66.2-11C286.9,319.7,295.5,327.8,296.2,340.2z"/>
	<path id="XMLID_27_" class="st7" d="M293.9,338.4l8.1,140.1c3.1,54-15.5,96.1-50.8,110l0,0c-4.8,4.7-9.8,9.3-15.4,13.5
		c3.8,7.8,23,52.3,37.6,81.1c-66.1-12.4-113.6-30.3-158.3-76.4l-149.7,20.8l-149.7,20.7c-48.9,6.5-98.2-52-97.4-96.5l2-135.2
		c1.6-0.3,3.4-15.5,4.5-14c9.3-15.9,75.6-13.3,110.6,70.5c4.2,14.3,22.8,29.8,24.1,51.2L28,504.3l7.5-0.9l176.8-21l10.1-42
		l-3.8-105.6l-0.2-5.4c28.7-3.8,51.5-35,62-15.8C283.4,319.3,293.3,326.7,293.9,338.4z"/>
	<path id="XMLID_26_" class="st8" d="M291.7,336.5l8.1,139.5c3.1,53.6-16.3,95.7-51.9,109l0,0c-4.3,4.7-8.7,9.8-13.4,14.4
		c4.5,9.2,23.6,53,37.8,81c-65.5-13.2-112-31.1-156.2-77.8l-148.5,20.6l-148.5,20.5c-48.3,6.3-96.6-50.5-96-95.3l1.5-133.8
		c1.8-0.3,3.9-14.4,5.2-12.7c10.2-12.8,71.5-2.3,106.4,75.7c3.9,13.3,24.9,27.4,26,47.3L29,505l7.4-0.8l175.1-20.9l12.2-39.6
		l-3.9-104.5l-0.2-5.3c26.8-3.5,47.9-38.4,57.7-20.3C280,319,291,325.6,291.7,336.5z"/>
	<path id="XMLID_25_" class="st9" d="M289.3,334.7l8,138.9c3.1,53.2-17.1,95.3-53.1,107.9l0,0c-3.8,4.9-7.6,10.2-11.5,15.4
		c5.2,10.5,24.2,53.8,37.9,81c-65-13.9-110.4-31.9-154.1-79.2l-147.2,20.2l-147.2,20.2c-47.8,6.2-95.1-48.9-94.7-93.9l0.9-132.5
		c2.1-0.3,4.3-13.2,5.8-11.2c10.9-9.6,67.3,8.9,102.2,81c3.7,12.4,27,24.8,28.1,43.4l165.1-19.8l7.1-0.8l173.3-20.9l14.2-37.2
		l-3.4-103.4l-0.1-5.3c24.9-3.2,44.5-41.8,53.5-25.1C276.5,318.6,288.7,324.5,289.3,334.7z"/>
	<path id="XMLID_24_" class="st10" d="M287,332.8l8,138.3c3.1,52.8-17.9,94.9-54.2,107l0,0c-3.3,5-6.4,10.6-9.7,16.2
		c5.8,11.9,24.9,54.6,38.1,80.9c-64.4-14.7-108.8-32.7-152.2-80.6l-145.9,20.2l-146,20.1c-47.2,6.2-93.5-47.4-93.3-92.6l0.2-131.1
		c2.5-0.3,4.8-12,6.4-9.8c11.8-6.5,63.1,20.1,97.9,86.2c3.3,11.5,29.1,22.4,30.2,39.5l163.3-19.8l7-0.8l171.6-20.8l16.3-34.8
		l-3.3-102.3l-0.1-5.1c23-3,40.9-45.1,49.4-29.6C273.1,318.2,286.5,323.5,287,332.8z"/>
	<path id="XMLID_23_" class="st11" d="M284.8,331l8,137.7c3.1,52.3-18.7,94.5-55.3,106.1l0,0c-2.8,5.1-5.3,11.2-7.9,17.1
		c6.4,13.1,25.5,55.4,38.2,80.9c-63.8-15.5-107.2-33.6-150-82l-144.7,19.8l-144.7,19.8c-46.5,6.1-91.9-46-92-91.2l-0.2-129.8
		c2.7-0.4,5.3-10.9,7-8.4c12.6-3.2,58.9,31.1,93.7,91.5c3.1,10.5,31.3,19.9,32.2,35.6l161.6-19.8l6.9-0.8l169.8-20.8l18.3-32.3
		l-3.1-101.1l-0.1-5c21.1-2.7,37.5-48.5,45.2-34.4C269.8,317.9,284.3,322.4,284.8,331z"/>
	<path id="XMLID_22_" class="st12" d="M282.4,329.1l7.9,137c2.9,51.9-19.4,94.2-56.2,105.1l0,0c-2.3,5.3-4.2,11.6-6,18.1
		c7.1,14.4,26.2,56.2,38.4,80.7c-63.2-16.2-105.7-34.5-148-83.3l-143.4,19.5l-143.5,19.7c-45.9,6.1-90.3-44.3-90.6-89.9l-0.9-128.4
		c2.9-0.4,5.6-9.7,7.6-7c13.5-0.1,54.8,42.3,89.4,96.6c2.8,9.6,33.4,17.4,34.3,31.7l159.9-19.7l6.8-0.8l168.1-20.8l20.4-29.9
		l-3-100.3l-0.1-4.9c19.2-2.6,33.9-51.9,40.9-39.1C266.4,317.5,282,321.3,282.4,329.1z"/>
	<path id="XMLID_21_" class="st13" d="M280.1,327.2l7.9,136.5c2.9,51.5-20.3,93.8-57.4,104.2l0,0c-1.8,5.3-3.1,12-4.2,19
		c7.7,15.8,26.8,56.9,38.6,80.6c-62.8-17-104.1-35.3-145.9-84.8L-23.1,602l-142.2,19.4c-45.3,5.9-88.7-42.9-89.3-88.5l-1.5-127.1
		c3.2-0.4,6.1-8.5,8.1-5.5c14.2,3,50.6,53.4,85.2,101.9c2.6,8.6,35.5,15,36.2,27.8l158.3-19.8l6.6-0.8l166.3-20.6l22.5-27.5
		l-2.8-99.2l-0.1-4.9c17.2-2.3,30.5-55.2,36.7-43.7C262.9,317.3,279.7,320.2,280.1,327.2z"/>
	<path id="XMLID_20_" class="st14" d="M277.9,325.4l7.9,136c2.9,51.1-21,93.4-58.5,103.2l0,0c-1.4,5.4-2,12.4-2.3,19.8
		c8.4,17,27.5,57.7,38.7,80.6c-62.3-17.8-102.5-36.1-143.8-86.1l-141,19l-141,19.1c-44.7,5.8-87.1-41.4-87.9-87.3l-2-125.7
		c3.4-0.4,6.5-7.4,8.7-4.2c15.1,6.2,46.4,64.5,80.9,107.1c2.2,7.7,37.7,12.4,38.3,23.9l156.5-19.6l6.4-0.8l164.6-20.6l24.6-25.1
		l-2.6-98.1l-0.1-4.7c15.4-2,26.9-58.6,32.5-48.4C259.5,316.9,277.5,319.2,277.9,325.4z"/>
	<path id="XMLID_19_" class="st15" d="M275.6,323.6l7.9,135.3c2.9,50.7-21.9,93-59.6,102.3l0,0c-0.9,5.5-0.7,12.9-0.4,20.8
		c9,18.3,28.1,58.5,38.8,80.4c-61.6-18.5-100.9-36.9-141.7-87.5l-139.8,18.9L-159,612.7c-44.1,5.8-85.5-39.8-86.6-86l-2.6-124.4
		c3.7-0.5,7-6.2,9.3-2.7c16,9.3,42.1,75.6,76.8,112.4c2,6.6,39.8,10,40.3,19.9l154.6-19.5l6.3-0.8L201.9,491l26.6-22.6l-2.5-97
		l-0.1-4.6c13.4-1.8,23.5-62,28.4-53C256.2,316.6,275.2,318.1,275.6,323.6z"/>
	<path id="XMLID_18_" class="st16" d="M273.2,321.7l7.7,134.8c2.9,50.1-22.6,92.6-60.7,101.3l0,0c-0.4,5.7,0.4,13.3,1.5,21.7
		c9.7,19.7,28.7,59.3,39.1,80.3c-61.2-19.3-99.4-37.7-139.8-88.9l-138.4,18.6l-138.4,18.6c-43.5,5.7-83.9-38.3-85.2-84.6l-3.2-123
		c4.1-0.5,7.4-5,9.9-1.3c16.8,12.5,37.9,86.8,72.5,117.6c1.7,5.7,41.9,7.5,42.4,16.2l152.9-19.4l6.1-0.8l161.2-20.6l28.7-20.2
		l-2.2-95.9l-0.1-4.4c11.5-1.5,19.9-65.4,24.1-57.7C252.7,316.2,273,317,273.2,321.7z"/>
	<path id="XMLID_17_" class="st17" d="M271,319.8l7.7,134.1c2.8,49.7-23.3,92.3-61.8,100.4l0,0c0.1,5.8,1.5,13.7,3.3,22.6
		c10.3,21,29.4,60.1,39.2,80.3c-60.5-20.1-97.8-38.7-137.7-90.3l-137.1,18.4l-137.2,18.3c-42.9,5.7-82.3-36.8-83.9-83.3l-3.8-121.7
		c4.3-0.5,7.9-3.9,10.6,0.1c17.7,15.6,33.8,97.8,68.3,122.9c1.4,4.7,44,5,44.5,12.3l151.2-19.4l6-0.8l159.3-20.5l30.8-17.8
		l-2.1-94.9l-0.1-4.3c9.6-1.2,16.3-68.7,19.9-62.4C249.3,315.9,270.8,315.9,271,319.8z"/>
	<path id="XMLID_16_" class="st18" d="M268.7,317.9l7.7,133.5c2.8,49.3-24.2,91.9-62.8,99.4l0,0c0.6,5.8,2.6,14.1,5.2,23.4
		c10.9,22.2,30.1,60.8,39.3,80.2c-60.1-20.9-96.2-39.5-135.6-91.6L-13.4,581l-135.9,18.1c-42.2,5.5-80.7-35.2-82.5-81.9l-4.3-120.3
		c4.5-0.5,8.4-2.7,11.2,1.5c18.4,18.9,29.6,109,64,128.2c1.1,3.8,46.2,2.6,46.4,8.4L35,515.6l5.9-0.8l157.4-20.6l32.9-15.2
		l-1.8-93.8l-0.1-4.3c7.6-0.9,12.9-72.1,15.7-67C245.8,315.5,268.4,314.8,268.7,317.9z"/>
	<path id="XMLID_15_" class="st19" d="M266.4,316.2l7.6,132.9c2.8,48.9-24.9,91.5-63.9,98.4l0,0c1,5.9,3.7,14.7,7,24.4
		c11.5,23.6,30.7,61.6,39.5,80.2c-59.4-21.6-94.7-40.3-133.5-93.1l-134.7,17.9l-134.6,17.9c-41.6,5.4-79.1-33.7-81.2-80.7
		l-4.8-118.9c4.8-0.7,8.7-1.5,11.8,3c19.3,22,25.4,120.2,59.8,133.3c0.9,2.8,48.3,0.1,48.5,4.4l147.7-19.3l5.6-0.7L197,495.6
		l35-12.8l-1.7-92.7l-0.1-4.2c5.8-0.8,9.3-75.5,11.5-71.7C242.4,315.3,266.2,313.8,266.4,316.2z"/>
	<path id="XMLID_14_" class="st20" d="M264.1,314.3l7.6,132.3c2.8,48.4-25.8,91.1-65,97.4l0,0c1.5,6.1,4.8,15.1,8.8,25.3
		c12.3,24.9,31.3,62.4,39.7,80c-58.9-22.4-93.1-41.1-131.4-94.5L-9.6,572.5L-143,590.2c-41,5.4-77.5-32.2-79.8-79.4l-5.5-117.5
		c5-0.7,9.2-0.4,12.4,4.3c20.1,25.1,21.2,131.3,55.5,138.5c0.6,1.9,50.4-2.4,50.5,0.5l146-19.3l5.5-0.7l154.1-20.3l37.1-10.4
		l-1.6-91.6l-0.1-4c3.8-0.5,5.9-78.8,7.2-76.3C239.1,314.8,264,312.7,264.1,314.3z"/>
	<path id="XMLID_13_" class="st21" d="M261.8,312.4l7.6,131.7c2.8,48-26.5,90.7-66.1,96.5l0,0c2,6.2,6,15.5,10.7,26.3
		c12.9,26.3,31.9,63.2,39.8,79.9c-58.3-23.2-91.5-41.9-129.3-95.8L-7.6,568.4l-132.1,17.4c-40.4,5.3-75.9-30.6-78.5-78l-6-116.2
		c5.3-0.7,9.6,0.8,13,5.8c21,28.3,17.1,142.4,51.3,143.8c0.2,0.9,52.4-4.9,52.6-3.4L37,518.7l5.4-0.7l152.2-20.3l39.2-8l-1.4-90.6
		v-3.9c2-0.3,2.3-82.2,3.1-81C235.7,314.6,261.8,311.6,261.8,312.4z"/>
	<path id="XMLID_12_" class="st22" d="M-159.7,546.1l197.1-26.4l197.1-26.4l-1.2-89.5l-1.2-89.5l27.3-3.6l7.6,131.1
		c2.7,47.6-27.3,90.3-67.2,95.5l0,0c8.7,21.7,42.2,84.6,52.6,107c-57.8-23.9-89.9-42.9-127.2-97.2L-5.7,564.2l-130.9,17.1
		c-39.8,5.3-74.3-29.1-77.1-76.7l-6.7-114.7C-180.8,384.6-199.4,551.2-159.7,546.1z"/>
</g>
<path id="XMLID_11_" class="st23" d="M264.6,669l-20.8-42.2c-9.5-19.3-16.2-40.7-19.9-62.9c52.1-15.5,87.1-82.3,79-153.4L285.7,260
	c-8.4-74.2-60.9-125.6-116.9-114.4l-397,79.6c-56,11.2-94.7,80.9-86.2,155.1l17.2,150.5c8.5,74.3,60.9,125.6,116.9,114.4l300.5-60.4
	c30.8,40.3,68.5,67.1,107.1,75.6L264.6,669L264.6,669z"/>
<linearGradient id="XMLID_3_" gradientUnits="userSpaceOnUse" x1="-1657.6666" y1="1080.5947" x2="-1657.6666" y2="636.3766" gradientTransform="matrix(-0.9887 0.1496 0.1496 0.9887 -1759.019 -173.0208)">
	<stop  offset="0" style="stop-color:#FFFFFF"/>
	<stop  offset="0.2723" style="stop-color:#FCFCFD"/>
	<stop  offset="0.6286" style="stop-color:#ECECED"/>
	<stop  offset="1" style="stop-color:#D7D8D8"/>
</linearGradient>
<path id="XMLID_10_" class="st24" d="M221.8,620.1c-8.7-23.6-14.4-49.1-16.3-74.9l-0.9-11l8.1-1.6l9.3-1.9
	c42.2-8.5,71.4-60.9,65-117l-17.2-150.5c-6.4-56-45.9-94.7-88.2-86.2l-397.2,79.8c-42.2,8.5-71.4,60.9-65,117l17.2,150.5
	c6.4,56.1,45.9,94.7,88.2,86.2l308.9-62l4.4-0.9l3.1,4.3C164.7,584.8,192.7,608.3,221.8,620.1L221.8,620.1z"/>
<text transform="matrix(0.9703 -0.203 0.2047 0.9788 -244.1946 300.0116)" class="st25 st26 st27">We’ve already seen the </text>
<text transform="matrix(0.9703 -0.203 0.2047 0.9788 -233.6321 350.5173)" class="st25 st26 st27">record like </text>
<text transform="matrix(0.9703 -0.203 0.2047 0.9788 -32.3029 307.6841)" class="st23 st26 st27">number1=20</text>
<text transform="matrix(0.9703 -0.203 0.2047 0.9788 -223.0697 401.023)" class="st25 st26 st27">Let’s write a program, </text>
<text transform="matrix(0.9703 -0.203 0.2047 0.9788 -212.507 451.5297)" class="st25 st26 st27">which in case of </text>
<text transform="matrix(0.9703 -0.203 0.2047 0.9788 85.2776 389.2291)" class="st23 st26 st27">number1</text>
<text transform="matrix(0.9703 -0.203 0.2047 0.9788 -201.9444 502.0363)" class="st25 st26 st27">is equal to 20, will print  </text>
<text transform="matrix(0.9703 -0.203 0.2047 0.9788 -191.3825 552.5422)" class="st25 st26 st27">to the screen a message: </text>
<text transform="matrix(0.9703 -0.203 0.2047 0.9788 -180.8195 603.0477)" class="st23 st26 st27">Woohoo! number1 = 20</text>
</svg>
