<?xml version="1.0" encoding="utf-8"?>
<!-- Generator: Adobe Illustrator 17.0.0, SVG Export Plug-In . SVG Version: 6.00 Build 0)  -->
<!DOCTYPE svg PUBLIC "-//W3C//DTD SVG 1.1//EN" "http://www.w3.org/Graphics/SVG/1.1/DTD/svg11.dtd">
<svg version="1.1" id="Layer_1" xmlns="http://www.w3.org/2000/svg" xmlns:xlink="http://www.w3.org/1999/xlink" x="0px" y="0px"
	 width="324.667px" height="247.571px" viewBox="0 0 324.667 247.571" enable-background="new 0 0 324.667 247.571"
	 xml:space="preserve">
<g>
	<g>
		<path fill="#FFFFFF" fill-opacity="0" d="M90.078,139.692l88.141,5l88.06,5.059l8.268-73.723
			c24.754,1.042,43.73-2.066,40.914,27.487l-5.821,60.724c-2.816,29.554-16.301,47.51-41.056,46.467c0,0,5.668,21.321,11.477,36.864
			c-31.516-8.431-55.271-19.697-74.448-41.184l-148.551-4.755c-24.754-1.042-45.797-33.643-41.774-51.545l14.096-68.99
			C34.357,64.422,98.575,51.182,90.078,139.692z"/>
	</g>
	<path opacity="0.0476" fill="#EFEDEE" enable-background="new    " d="M314.468,102.568l-5.788,60.515
		c-2.245,23.773-11.962,40.115-28.733,44.652l0,0c-3.631,1.207-7.603,1.857-11.974,1.871c0.189,0.603,5.891,21.715,11.547,36.875
		c-31.261-8.677-54.447-19.923-73.381-41.586l-73.654-2.457l-73.654-2.457c-24.475-0.998-45.141-32.822-41.305-50.896l11.783-59.05
		c0.14,0.022,2.065-8.835,2.123-8.754c4.505-12.883,49.313-21.651,57.96,28.365c1.304,8.374,2.816,18.571,1.665,30.632l83.385,4.737
		l3.837,0.187l87.292,4.935l3.437-22.722l5.297-46.772l0.264-2.536c18.069,0.756,33.127-2.482,37.891,9.313
		C314.03,91.039,315.104,95.938,314.468,102.568z"/>
	<path opacity="0.0952" fill="#DEDCDE" enable-background="new    " d="M313.545,101.632l-5.812,60.224
		c-2.293,23.622-12.288,39.919-29.154,44.155l0,0c-3.422,1.24-7.148,2.145-11.203,2.425c0.449,1.218,6.126,22.039,11.628,36.817
		c-30.926-8.981-53.693-20.16-72.302-42.057l-73.085-2.437l-73.085-2.437c-24.184-1.023-44.474-32.07-40.766-50.237L31.248,89.56
		c0.279,0.045,2.126-8.324,2.301-8.081c4.711-11.489,46.687-17.346,55.658,30.215c1.232,7.932,3.962,17.681,2.831,29.172
		l82.548,4.602l3.767,0.176l86.455,4.801l4.257-21.588l5.289-46.272l0.253-2.466c17.15,0.68,31.745-4.136,36.239,7.114
		C312.446,90.642,314.124,95.351,313.545,101.632z"/>
	<path opacity="0.1429" fill="#CCCACD" enable-background="new    " d="M312.621,100.696l-5.779,60.015
		c-2.259,23.413-12.615,39.723-29.645,43.646l0,0c-3.224,1.344-6.612,2.375-10.352,2.919c0.638,1.821,6.349,22.433,11.698,36.828
		c-30.672-9.227-52.869-20.385-71.235-42.458l-72.515-2.417l-72.515-2.417c-23.905-0.978-43.877-31.329-40.228-49.577l11.207-58.14
		c0.36-0.014,2.256-7.801,2.491-7.477c4.847-10.106,43.981-12.983,53.355,32.065c1.218,7.572,5.107,16.791,4.077,27.654l81.78,4.479
		l3.686,0.234l85.687,4.677l5.066-20.383l5.291-45.842l0.242-2.396c16.29,0.685,30.375-5.86,34.599,4.845
		C310.863,90.244,313.214,94.775,312.621,100.696z"/>
	<path opacity="0.1905" fill="#BEBBBE" enable-background="new    " d="M311.697,99.759l-5.734,59.736
		c-2.225,23.203-12.93,39.458-30.067,43.149l0,0c-2.956,1.459-6.157,2.663-9.582,3.473c0.839,2.355,6.642,22.838,11.779,36.769
		c-30.336-9.531-52.115-20.622-70.238-42.871l-71.864-2.455l-71.864-2.455c-23.615-1.003-43.21-30.578-39.678-48.988l10.745-57.498
		c0.5,0.009,2.387-7.279,2.669-6.804c5.053-8.713,41.275-8.62,51.041,33.985c1.146,7.131,6.253,15.901,5.243,26.194l80.931,4.414
		l3.616,0.223l84.919,4.554l5.887-19.249l5.294-45.412l0.312-2.385c15.371,0.609,28.924-7.526,32.958,2.576
		C309.35,89.857,312.246,94.118,311.697,99.759z"/>
	<path opacity="0.2381" fill="#AEACB0" enable-background="new    " d="M310.704,98.812l-5.689,59.456
		c-2.203,23.064-13.327,39.251-30.499,42.721l0,0c-2.746,1.492-5.621,2.892-8.8,3.957c1.028,2.958,6.876,23.162,11.849,36.781
		c-30.001-9.835-51.291-20.848-69.16-43.342l-71.294-2.435l-71.225-2.424c-23.336-0.958-42.613-29.837-39.14-48.328l10.376-56.984
		c0.64,0.031,2.518-6.757,2.859-6.201c5.189-7.33,38.579-4.327,48.739,35.835c1.073,6.689,7.399,15.011,6.478,24.746l80.163,4.291
		l3.547,0.212l84.07,4.489l6.696-18.045l5.285-44.912l0.3-2.315c14.441,0.602,27.543-9.18,31.387,0.318
		C307.767,89.46,311.266,93.531,310.704,98.812z"/>
	<path opacity="0.2857" fill="#9F9CA1" enable-background="new    " d="M309.791,97.806l-5.655,59.247
		c-2.169,22.854-13.653,39.055-30.921,42.224l0,0c-2.548,1.596-5.166,3.18-7.96,4.521c1.288,3.573,7.099,23.556,11.93,36.722
		c-29.747-10.081-50.537-21.085-68.093-43.744l-70.713-2.485l-70.713-2.485c-23.045-0.983-41.946-29.085-38.601-47.669
		l10.007-56.471c0.779,0.054,2.649-6.234,3.037-5.527c5.394-5.936,35.943,0.048,46.425,37.755c0.99,6.318,8.544,14.121,7.655,23.216
		l79.325,4.156l3.477,0.201l83.36,4.446l7.435-16.852l5.357-44.471l0.3-2.315c13.522,0.526,26.162-10.834,29.747-1.951
		C306.253,89.073,310.297,92.874,309.791,97.806z"/>
	<path opacity="0.3333" fill="#918F94" enable-background="new    " d="M308.867,96.87l-5.68,58.956
		c-2.147,22.715-13.969,38.79-31.342,41.727l0,0c-2.35,1.699-4.711,3.468-7.178,5.005c1.477,4.176,7.322,23.95,12,36.733
		c-29.411-10.385-49.713-21.31-67.095-44.156l-70.074-2.454l-70.074-2.454c-22.766-0.938-41.349-28.345-38.063-47.009l9.627-55.887
		c0.849,0.065,2.78-5.712,3.226-4.924c5.541-4.624,33.236,4.411,44.123,39.604c0.917,5.877,9.679,13.3,8.891,21.767l78.546,4.102
		l3.407,0.19l82.383,4.289l8.255-15.717l5.349-43.971l0.289-2.245c12.662,0.531,24.781-12.488,28.106-4.219
		C304.67,88.675,309.317,92.287,308.867,96.87z"/>
	<path opacity="0.381" fill="#848186" enable-background="new    " d="M307.944,95.933l-5.647,58.747
		c-2.183,22.494-14.295,38.594-31.833,41.218l0,0c-2.14,1.733-4.175,3.697-6.408,5.559c1.667,4.78,7.615,24.355,12.081,36.675
		c-29.087-10.619-48.958-21.547-66.017-44.627L140.627,191l-69.493-2.504c-22.475-0.963-40.693-27.523-37.524-46.35l9.328-55.362
		c1,0.017,2.911-5.19,3.405-4.251c5.747-3.23,30.541,8.704,41.82,41.454c0.845,5.435,10.824,12.41,10.068,20.238l77.708,3.968
		l3.407,0.19l81.615,4.166l9.064-14.513l5.351-43.541l0.278-2.175c11.743,0.455,23.41-14.212,26.466-6.488
		C303.087,88.278,308.349,91.63,307.944,95.933z"/>
	<path opacity="0.4286" fill="#77747A" enable-background="new    " d="M307.02,94.997l-5.602,58.468
		c-2.149,22.285-14.692,38.387-32.266,40.79l0,0c-1.872,1.847-3.72,3.985-5.556,6.054c1.856,5.383,7.85,24.68,12.15,36.686
		c-28.822-10.934-48.134-21.773-64.95-45.029l-68.923-2.484l-68.923-2.484c-22.196-0.918-40.096-26.783-36.986-45.69l8.959-54.849
		c1.139,0.04,3.042-4.667,3.594-3.648c5.883-1.847,27.834,13.067,39.506,43.374c0.773,4.994,11.97,11.52,11.303,18.789l76.94,3.844
		l3.337,0.178l80.777,4.031l9.885-13.379l5.342-43.041l0.278-2.175c10.813,0.449,21.959-15.878,24.825-8.757
		C301.573,87.891,307.369,91.043,307.02,94.997z"/>
	<path opacity="0.4762" fill="#6B686E" enable-background="new    " d="M306.026,94.05l-5.557,58.189
		c-2.127,22.145-15.019,38.191-32.687,40.293l0,0c-1.663,1.881-3.195,4.285-4.786,6.607c2.115,5.998,8.073,25.073,12.301,36.638
		c-28.486-11.239-47.38-22.01-63.883-45.43l-68.284-2.453l-68.284-2.453c-21.906-0.943-39.429-26.031-36.447-45.031l8.59-54.335
		c1.279,0.062,3.173-4.145,3.772-2.974c6.089-0.454,25.198,17.442,37.204,45.224c0.759,4.634,13.116,10.63,12.469,17.329
		l76.091,3.779l3.267,0.167l79.881,3.816l10.694-12.174l5.345-42.611l0.267-2.106c9.964,0.384,20.578-17.532,23.185-11.026
		C299.99,87.494,306.389,90.456,306.026,94.05z"/>
	<path opacity="0.5238" fill="#5F5C62" enable-background="new    " d="M305.103,93.113l-5.593,57.968
		c-2.093,21.936-15.334,37.926-33.108,39.796l0,0c-1.465,1.985-2.729,4.503-4.004,7.091c2.316,6.531,8.296,25.467,12.371,36.65
		c-28.232-11.484-46.626-22.247-62.874-45.913l-67.703-2.503l-67.703-2.503c-21.626-0.898-38.762-25.279-35.908-44.371l8.221-53.822
		c1.349,0.074,3.304-3.623,3.962-2.371c6.224,0.929,22.503,21.735,34.89,47.144c0.687,4.192,14.261,9.74,13.715,15.811l75.323,3.656
		l3.198,0.156l79.161,3.843l11.433-10.981l5.347-42.181l0.256-2.036c9.034,0.378,19.197-19.187,21.544-13.295
		C298.407,87.096,305.42,89.799,305.103,93.113z"/>
	<path opacity="0.5714" fill="#545257" enable-background="new    " d="M304.179,92.177l-5.548,57.689
		c-2.071,21.796-15.661,37.73-33.53,39.298l0,0c-1.267,2.088-2.204,4.802-3.164,7.655c2.506,7.134,8.6,25.803,12.452,36.591
		c-27.897-11.788-45.802-22.472-61.807-46.314l-67.203-2.494l-67.133-2.483c-21.347-0.853-38.165-24.539-35.37-43.712L50.728,85.1
		c1.5,0.026,3.365-3.112,4.14-1.698c6.43,2.323,19.796,26.098,32.587,48.994c0.615,3.751,15.396,8.92,14.881,14.351l74.486,3.521
		l3.128,0.145l78.462,3.731l12.253-9.847l5.408-41.67l0.256-2.036c8.116,0.302,17.827-20.911,19.904-15.564
		C296.894,86.709,304.441,89.212,304.179,92.177z"/>
	<path opacity="0.619" fill="#49474D" enable-background="new    " d="M303.255,91.241l-5.514,57.479
		c-2.037,21.587-15.987,37.534-34.032,38.859l0,0c-0.987,2.133-1.749,5.09-2.382,8.139c2.765,7.749,8.823,26.197,12.522,36.602
		c-27.573-12.023-45.048-22.709-60.74-46.715l-66.482-2.521l-66.482-2.521c-21.057-0.878-37.498-23.787-34.831-43.053l7.553-52.783
		c1.639,0.049,3.496-2.589,4.33-1.094c6.566,3.705,17.09,30.461,30.215,50.833c0.531,3.38,16.541,8.03,16.127,12.833l73.707,3.468
		l3.058,0.133l77.404,3.632l13.062-8.643l5.411-41.239l0.244-1.966c7.255,0.307,16.376-22.576,18.333-17.822
		C295.31,86.312,303.472,88.555,303.255,91.241z"/>
	<path opacity="0.6667" fill="#3E3D42" enable-background="new    " d="M302.331,90.305l-5.47,57.2
		c-2.073,21.366-16.384,37.327-34.453,38.362l0,0c-0.789,2.236-1.213,5.319-1.612,8.693c2.954,8.352,9.046,26.591,12.603,36.544
		c-27.307-12.338-44.224-22.935-59.731-47.198l-65.913-2.501l-65.913-2.501c-20.777-0.833-36.901-23.047-34.293-42.393l7.172-52.2
		c1.779,0.071,3.626-2.067,4.508-0.421c6.772,5.099,14.464,34.766,27.901,52.752c0.459,2.938,17.757,7.151,17.293,11.373
		l72.869,3.333l2.988,0.122l76.706,3.52l13.871-7.438l5.402-40.74l0.233-1.896c6.337,0.231,14.995-24.23,16.693-20.09
		C293.797,85.925,302.492,87.967,302.331,90.305z"/>
	<path opacity="0.7143" fill="#343438" enable-background="new    " d="M301.338,89.357l-5.436,56.991
		c-2.051,21.226-16.699,37.062-34.875,37.865l0,0c-0.591,2.34-0.758,5.607-0.83,9.176c3.144,8.956,9.351,26.926,12.673,36.555
		c-26.972-12.642-43.469-23.171-58.664-47.599l-65.332-2.551l-65.332-2.551c-20.487-0.858-36.245-22.225-33.754-41.734l6.803-51.686
		c1.919,0.094,3.757-1.545,4.697,0.182c6.907,6.481,11.758,39.129,25.599,54.602c0.386,2.497,18.902,6.261,18.528,9.925
		l72.182,3.151l2.918,0.111l75.938,3.397l14.692-6.304l5.405-40.31l0.222-1.826c5.407,0.224,13.613-25.885,15.052-22.359
		C292.214,85.528,301.582,87.391,301.338,89.357z"/>
	<path opacity="0.7619" fill="#2A2B2F" enable-background="new    " d="M300.425,88.351l-5.461,56.7
		c-2.017,21.017-17.026,36.866-35.307,37.437l0,0c-0.382,2.374-0.233,5.906,0.021,9.671c3.333,9.559,9.574,27.32,12.754,36.496
		c-26.648-12.877-42.645-23.397-57.597-48.001l-64.692-2.52l-64.692-2.52c-20.208-0.813-35.648-21.485-33.216-41.074l6.434-51.173
		c1.988,0.105,3.888-1.022,4.876,0.855c7.113,7.875,9.051,43.492,23.296,56.452c0.303,2.125,20.048,5.371,19.705,8.395l71.252,3.145
		l2.849,0.1l75.1,3.262l15.501-5.1l5.407-39.879l0.222-1.826c4.488,0.148,12.232-27.539,13.411-24.628
		C290.631,85.13,300.613,86.734,300.425,88.351z"/>
	<path opacity="0.8095" fill="#212226" enable-background="new    " d="M299.501,87.415l-5.416,56.421
		c-1.995,20.877-17.352,36.67-35.729,36.94l0,0c-0.113,2.488,0.233,6.125,0.791,10.225c3.593,10.174,9.797,27.714,12.824,36.508
		c-26.382-13.192-41.891-23.634-56.589-48.483l-64.111-2.57l-64.111-2.57c-19.917-0.838-34.981-20.733-32.677-40.415l6.065-50.659
		c2.139,0.057,4.019-0.5,5.065,1.459c7.249,9.258,6.345,47.855,20.982,58.372c0.231,1.684,21.194,4.481,20.941,6.946l70.484,3.021
		l2.779,0.089l74.251,3.197l16.251-3.977l5.398-39.38l0.222-1.826c3.628,0.153,10.792-29.274,11.771-26.897
		C289.117,84.743,299.634,86.147,299.501,87.415z"/>
	<path opacity="0.8571" fill="#19191E" enable-background="new    " d="M298.578,86.479l-5.382,56.211
		c-1.961,20.668-17.668,36.405-36.15,36.442l0,0c0.085,2.592,0.758,6.424,1.573,10.709c3.793,10.707,10.031,28.038,12.905,36.449
		c-26.058-13.426-41.067-23.86-55.522-48.884l-63.542-2.55l-63.542-2.55c-19.638-0.793-34.314-19.981-32.139-39.755l5.766-50.134
		c2.279,0.08,4.15,0.022,5.243,2.132c7.455,10.651,3.719,52.16,18.68,60.222c0.228,1.254,22.328,3.66,22.118,5.417l69.646,2.887
		l2.698,0.147l73.483,3.074l17.06-2.772l5.459-38.868l0.211-1.756c2.709,0.077,9.411-30.929,10.13-29.166
		C287.534,84.346,298.665,85.49,298.578,86.479z"/>
	<path opacity="0.9048" fill="#131417" enable-background="new    " d="M297.654,85.543l-5.337,55.932
		c-1.928,20.458-18.064,36.198-36.641,35.933l0,0c0.294,2.625,1.224,6.642,2.413,11.273c3.983,11.311,10.324,28.443,12.974,36.46
		c-25.792-13.742-40.313-24.096-54.454-49.286l-62.972-2.53l-62.902-2.519c-19.348-0.818-33.717-19.241-31.589-39.166l5.327-49.632
		c2.418,0.102,4.281,0.545,5.433,2.735c7.591,12.034,1.013,56.523,16.366,62.142c0.156,0.813,23.474,2.77,23.353,3.968l68.867,2.833
		l2.628,0.136l72.646,2.939l17.869-1.568l5.462-38.438l0.269-1.675c1.779,0.071,8.03-32.583,8.479-31.365
		C285.951,83.948,297.685,84.903,297.654,85.543z"/>
	<path opacity="0.9524" fill="#0A0B0D" enable-background="new    " d="M296.66,84.595l-5.374,55.712
		c-1.975,20.307-18.391,36.002-37.074,35.506l0,0c0.492,2.729,1.749,6.941,3.195,11.757c4.172,11.914,10.547,28.837,13.055,36.402
		c-25.457-14.046-39.489-24.322-53.387-49.687l-62.31-2.639l-62.321-2.569c-19.068-0.773-33.05-18.489-31.05-38.506l5.028-49.107
		c2.488,0.113,4.412,1.067,5.611,3.408c7.807,13.358-1.694,60.886,14.064,63.992c0.072,0.441,24.62,1.88,24.53,2.439l68.029,2.698
		l2.558,0.125l71.867,2.886l18.689-0.434l5.464-38.008l0.269-1.675c0.93,0.006,6.649-34.237,6.838-33.634
		C284.449,83.492,296.717,84.246,296.66,84.595z"/>
	<path fill="#040404" d="M85.97,150.992l92.957,3.554l92.957,3.554l5.456-37.508l5.456-37.508l12.871,0.565l-5.329,55.432
		c-1.941,20.098-18.717,35.807-37.495,35.008l0,0c2.59,9.726,13.858,38.536,17.102,48.653c-25.133-14.28-38.735-24.559-52.379-50.17
		l-61.751-2.549l-61.751-2.549c-18.778-0.798-32.453-17.749-30.512-37.847l4.857-48.49C87.047,81.914,67.181,150.263,85.97,150.992z
		"/>
</g>
<path fill="#6CB645" d="M274.009,233.994l-6.725-19.199c-3.108-8.735-4.732-18.234-4.974-27.87
	c25.128-2.621,45.812-27.943,46.823-58.288l2.162-64.248c1.084-31.694-24.085-61.436-50.702-59.992L75.853,11.651
	C49.202,12.166,26.64,38.474,25.556,70.169l-2.162,64.248c-1.084,31.694,19.755,57.101,46.406,56.586l143.044-2.862
	c11.526,19.183,27.183,33.158,44.483,39.591L274.009,233.994L274.009,233.994z"/>
<linearGradient id="SVGID_1_" gradientUnits="userSpaceOnUse" x1="706.2213" y1="748.37" x2="706.2213" y2="1014.8943" gradientTransform="matrix(-0.707 -0.0065 0.0065 -0.707 665.0301 743.2455)">
	<stop  offset="0" style="stop-color:#FFFFFF"/>
	<stop  offset="0.2723" style="stop-color:#FAFAFB"/>
	<stop  offset="0.6286" style="stop-color:#ECECED"/>
	<stop  offset="1" style="stop-color:#D7D8D8"/>
</linearGradient>
<path fill="url(#SVGID_1_)" d="M257.47,210.353c-2.467-10.494-3.333-21.59-2.571-32.568l0.31-4.605l3.882-0.092l4.452-0.072
	c20.119-0.419,37.116-20.174,37.954-44.101l2.162-64.248c0.838-23.928-14.919-43.075-34.969-42.645L79.666,25.799
	C59.547,26.218,42.55,45.973,41.712,69.901l-2.162,64.248c-0.838,23.928,14.919,43.075,34.969,42.645l147.065-2.932l2.15-0.012
	l1.174,2.051C233.391,191.3,244.782,203.301,257.47,210.353L257.47,210.353z"/>
<rect x="33.907" y="54.781" transform="matrix(-0.9996 0.0274 -0.0274 -0.9996 332.4533 230.9998)" fill="none" width="261.47" height="125.998"/>
<g display="none">
</g>
<rect x="69.006" y="48.553" fill="none" width="228.641" height="110.311"/>
<text transform="matrix(1 -0.0037 0.0037 1 69.0477 60.3458)"><tspan x="0" y="0" font-family="'BradleyHandITCTT-Bold'" font-size="18">На уроке мы  </tspan><tspan x="-0.083" y="21.6" font-family="'BradleyHandITCTT-Bold'" font-size="18">рассматривали, как </tspan><tspan x="-0.167" y="43.2" font-family="'BradleyHandITCTT-Bold'" font-size="18">научить компьютер </tspan><tspan x="-0.25" y="64.8" font-family="'BradleyHandITCTT-Bold'" font-size="18">здороваться. Вот фотка с </tspan><tspan x="-0.334" y="86.4" font-family="'BradleyHandITCTT-Bold'" font-size="18">конспекта.</tspan></text>
</svg>
